<svg width="24" height="24" viewBox="0 0 24 24" fill="none" stroke="black" stroke-width="1.5" stroke-linecap="round" stroke-linejoin="round" xmlns="http://www.w3.org/2000/svg">
<path d="M10.5 4.5H7C4.79086 4.5 3 6.29086 3 8.5V17C3 19.2091 4.79086 21 7 21H15.5C17.7091 21 19.5 19.2091 19.5 17V13.5M15.4645 5L8.73223 11.7322L8.5 15.5L12.2678 15.2678L19.0355 8.5M15.4645 5L16.7322 3.73223C17.1846 3.27982 17.8096 3 18.5 3C19.8807 3 21 4.11929 21 5.5C21 6.19036 20.7202 6.81536 20.2678 7.26777L19.0355 8.5M15.4645 5L19.0355 8.5" />
</svg>
