<svg width="24" height="24" viewBox="0 0 24 24" fill="black" xmlns="http://www.w3.org/2000/svg">
<path d="M5.23047 5.02124C5.55917 3.53861 7.02713 2.60294 8.50977 2.9314L19.4141 5.34937C20.8967 5.67813 21.8324 7.14604 21.5039 8.62866L19.2324 18.8748L19.2207 18.8728C19.0384 20.2149 17.8921 21.2498 16.5 21.2498H5C3.48122 21.2498 2.25 20.0185 2.25 18.4998V9.99976C2.25004 8.57131 3.33926 7.39799 4.73242 7.26343L5.23047 5.02124ZM3.75 18.4998C3.75 19.1901 4.30964 19.7498 5 19.7498H16.5C17.1904 19.7498 17.75 19.1901 17.75 18.4998V9.99976C17.75 9.30944 17.1903 8.74976 16.5 8.74976H5C4.30967 8.74976 3.75004 9.30944 3.75 9.99976V18.4998ZM19.25 11.863L20.0391 8.30444C20.1885 7.63045 19.7629 6.96265 19.0889 6.81323L8.18555 4.39624C7.51166 4.24684 6.8439 4.67165 6.69434 5.34546L6.27246 7.24976H16.5C18.0188 7.24976 19.25 8.48101 19.25 9.99976V11.863Z" stroke="none"/>
<path fill-rule="evenodd" clip-rule="evenodd" d="M5.5 9.24983H16C16.5523 9.24983 17 9.69755 17 10.2498V15.2498C17 15.2498 15 12.4998 14.5 11.9998C14 11.4998 13.5 11.9998 13.5 11.9998C13.5 11.9998 11.5 14.4998 11 14.9998C10.5 15.4998 10 14.9998 10 14.9998C10 14.9998 8.18544 13.6069 8 13.4998C7.75 13.3555 7.5 13.4998 7.5 13.4998L4.5 15.2498V10.2498C4.5 9.69755 4.94772 9.24983 5.5 9.24983ZM6.75 12.2498C7.30228 12.2498 7.75 11.8021 7.75 11.2498C7.75 10.6975 7.30228 10.2498 6.75 10.2498C6.19772 10.2498 5.75 10.6975 5.75 11.2498C5.75 11.8021 6.19772 12.2498 6.75 12.2498Z" stroke="none"/>
</svg>
