<svg width="24" height="24" viewBox="0 0 24 24" fill="none" xmlns="http://www.w3.org/2000/svg">
<path d="M16 10.7484V7C16 4.79086 14.2091 3 12 3C9.79086 3 8 4.79086 8 7V10.7484M16 10.7484H17.5C18.3284 10.7484 19 11.4199 19 12.2484V19.7484C19 20.5768 18.3284 21.2484 17.5 21.2484H6.5C5.67157 21.2484 5 20.5768 5 19.7484V12.2484C5 11.4199 5.67157 10.7484 6.5 10.7484H8M16 10.7484H8M12 15C12.2761 15 12.5 14.7761 12.5 14.5C12.5 14.2239 12.2761 14 12 14C11.7239 14 11.5 14.2239 11.5 14.5C11.5 14.7761 11.7239 15 12 15ZM12 15V17.5M12 15V14.5" stroke="black" stroke-width="1.5" stroke-linecap="round"/>
</svg>
