<svg viewBox="0 0 48 48" fill="none" xmlns="http://www.w3.org/2000/svg">
<path d="M48 24.4932C48 28.1415 46.5774 31.5225 44.1521 34.3489C44.0027 35.3186 43.766 36.5225 43.3912 37.7636C42.5291 40.618 40.8816 43.8636 37.7201 44.664C34.659 45.439 31.7619 44.5247 29.661 43.449C28.9769 43.0988 28.3723 42.7283 27.8672 42.3884C26.6077 42.5423 25.3161 42.6244 24 42.6244C22.6749 42.6244 21.3745 42.5418 20.1069 42.3858C19.5875 42.7391 18.9582 43.1291 18.2411 43.4963C16.1401 44.5719 13.2423 45.4862 10.1811 44.7112C7.01977 43.9108 5.37209 40.6651 4.51004 37.8109C4.10902 36.483 3.86502 35.1977 3.71819 34.1963C1.37195 31.4011 0 28.076 0 24.4932C8.89631e-05 20.9814 1.31822 17.7174 3.58008 14.9571C3.60521 14.7168 3.63733 14.4341 3.68052 14.1182C3.82193 13.084 4.07236 11.6855 4.51004 10.2363C5.37208 7.38201 7.01976 4.13636 10.1811 3.33591C13.2423 2.56092 16.1401 3.47524 18.2411 4.5509C19.2953 5.09066 20.161 5.67759 20.764 6.12928C20.9378 6.25952 21.0896 6.37946 21.2185 6.48341C22.1313 6.40392 23.0594 6.36199 24 6.36199C24.8917 6.36199 25.7723 6.40005 26.6392 6.4716C26.7769 6.35968 26.9434 6.2273 27.1373 6.08207C27.7402 5.63034 28.6067 5.04346 29.661 4.50368C31.7619 3.42814 34.6592 2.51381 37.7201 3.28869C40.8814 4.08902 42.5291 7.33483 43.3912 10.1891C43.8288 11.6382 44.0801 13.0368 44.2215 14.071C44.26 14.352 44.2897 14.607 44.3136 14.829C46.6403 17.6161 47.9999 20.9268 48 24.4932Z" fill="white"/>
</svg>
