<svg width="24" height="24" viewBox="0 0 24 24" fill="none" xmlns="http://www.w3.org/2000/svg">
<path fill-rule="evenodd" clip-rule="evenodd" d="M14.5 22H4C4 22 3 22 3 21.25C3 20.5 4 20.5 4 20.5H4.5C6 20.5 6 19 6 19V5.5C6 5.5 6 3.5 4 3.5C4 3.5 3 3.5 3 2.75C3 2 4 2 4 2H13C13 2 20 2 20 7.5C20 11 17.5 11.5 17.5 11.5C17.5 11.5 21 12.5 21 16.5C21 19.7 17.5 22 14.5 22ZM9.5 13H13.5C13.5 13 17 13 17 16.5C17 20 13.5 20 13.5 20H9.5V13ZM9.5 4V11H13.5C13.5 11 16 11 16 8C16 4 13 4 13 4H9.5Z" fill="black"/>
</svg>
