<svg width="24" height="24" viewBox="0 0 24 24" fill="none" xmlns="http://www.w3.org/2000/svg" stroke="black" stroke-linecap="round">
<path d="M8.5 10.5L9 18.5M12 19V10M15.5 10.5L15 18.5M5.5 7.5L6.33567 20.0993C6.38794 20.8874 7.04249 21.5 7.83238 21.5H16.1676C16.9575 21.5 17.6121 20.8874 17.6643 20.0993L18.5 7.5M5.5 7.5H18.5M5.5 7.5H4C3.72386 7.5 3.5 7.27614 3.5 7V6C3.5 5.72386 3.72386 5.5 4 5.5H7.64177M18.5 7.5H20C20.2761 7.5 20.5 7.27614 20.5 7V6C20.5 5.72386 20.2761 5.5 20 5.5H16.3582M16.3582 5.5C15.8587 3.77477 14.0968 2.5 12 2.5C9.90318 2.5 8.14132 3.77477 7.64177 5.5M16.3582 5.5H7.64177" />
</svg>
