<svg width="24" height="24" viewBox="0 0 24 24" fill="none" xmlns="http://www.w3.org/2000/svg">
<path d="M15.9844 11.9103C15.6645 10.6415 14.902 9.37278 13.7578 8.67981C13.457 8.57629 13.457 8.57629 13.0215 9.01106L13.0171 9.01558C12.9917 9.04172 12.9669 9.06719 12.9422 9.09231C12.6395 9.4009 12.359 9.71028 12.1242 10.0747L12.0758 10.1521C11.9793 10.2997 11.9121 10.4243 11.9012 10.6029C11.9219 10.7501 11.9219 10.7501 11.9965 10.831C12.0309 10.8509 12.0641 10.87 12.0977 10.8892C12.1344 10.9122 12.1703 10.9345 12.2059 10.9572C12.3023 11.0173 12.3875 11.0794 12.4734 11.1529C12.9594 11.5927 13.284 12.1739 13.3352 12.8322C13.3703 13.6704 13.5 14.5 13 15C12.5 15.5 10.5578 17.4409 10 18C9.5 18.5 8.5 19.5 7.5 19.5C6 19.5 4.5 18.5 4.5 16.5C4.5 15 5.5 14 6 13.5L7 12.5C7 12.5 6.65313 10.904 6.75587 9.97629C6.76407 9.90364 6.7711 9.83137 6.77813 9.75871L6.78751 9.65168C6.79337 9.58801 6.79883 9.52473 6.80469 9.46106C6.72657 9.46106 6.72657 9.46106 6.65977 9.51809C6.63204 9.54582 6.60547 9.57278 6.57852 9.59934C6.54727 9.63059 6.5168 9.66106 6.48633 9.69114C6.45274 9.72551 6.41954 9.75871 6.38672 9.79192C6.28064 9.898 6.17455 10.0045 6.06846 10.111L6.06797 10.1114C5.99493 10.1853 5.92149 10.2587 5.84805 10.3325C5.77618 10.404 5.70469 10.4759 5.63321 10.5474C5.59805 10.5829 5.56407 10.6169 5.52969 10.6513C5.35587 10.8255 5.18282 10.9993 5.02188 11.1857C4.91446 11.3103 4.80274 11.4282 4.68594 11.5443L4.61407 11.615C4.50782 11.7208 4.40157 11.8263 4.29493 11.9318C3.20196 13.0138 2.27696 14.0931 2.0254 15.6642C1.83907 17.14 2.13985 18.6286 3.02383 19.838L3.09376 19.9298C3.23712 20.1197 3.38555 20.2989 3.55274 20.4685C4.58829 21.4622 5.96993 22.0068 7.40274 22.0122C8.95469 21.9954 10.3293 21.3607 11.4113 20.263C11.4578 20.2154 11.5046 20.1682 11.5514 20.121L11.5516 20.1208C11.6516 20.0212 11.7512 19.9212 11.85 19.8212L11.8516 19.8196C11.9784 19.6913 12.1048 19.5633 12.232 19.4357C12.3574 19.3103 12.4824 19.1845 12.6074 19.0591L12.6097 19.0568C12.6331 19.033 12.6558 19.0099 12.6789 18.9868C12.9004 18.7642 13.1238 18.5431 13.3305 18.306C13.4344 18.1829 13.5453 18.0693 13.6598 17.956C13.8816 17.7388 14.0981 17.5189 14.3035 17.2857C14.3574 17.2243 14.4121 17.1634 14.4672 17.1025C14.5254 17.0384 14.5836 16.9743 14.6414 16.9095L14.7344 16.8048C14.9734 16.5372 15.2008 16.2661 15.393 15.9626C16.1133 14.7755 16.3035 13.2525 15.9844 11.9103Z" fill="black"/>
<path d="M20.0346 3.19398C20.1448 3.28851 20.2522 3.38578 20.3593 3.48421C20.3878 3.50921 20.4159 3.53421 20.4448 3.56C21.1335 4.20257 21.6003 5.08265 21.8436 5.98421C21.8518 6.01234 21.86 6.04046 21.8682 6.06937C22.2468 7.41429 21.9983 8.92054 21.337 10.1319C21.0624 10.617 20.7104 11.0366 20.3116 11.4229C20.2038 11.528 20.1014 11.635 20.0038 11.7498C19.8366 11.942 19.6565 12.1209 19.4757 12.3002C19.4581 12.3178 19.4581 12.3178 19.3682 12.4069C19.237 12.5377 19.1057 12.6682 18.9745 12.7987C18.8452 12.9268 18.7159 13.0553 18.587 13.1838C18.5534 13.217 18.5198 13.2506 18.485 13.285C18.3151 13.4541 18.1518 13.6256 17.9956 13.8077C17.8694 13.9537 17.7319 14.0893 17.5956 14.2264C17.5663 14.2565 17.537 14.2869 17.5065 14.3182C17.4925 14.3323 17.4925 14.3323 17.4206 14.4045C17.3952 14.4303 17.3694 14.4565 17.3432 14.483C17.2733 14.5389 17.2733 14.5389 17.1561 14.5389C17.1616 14.503 17.1667 14.4666 17.1721 14.4295C17.3198 13.3389 17.3292 12.2061 16.9862 11.1479C16.9421 10.9987 16.9358 10.9061 16.9608 10.7498C17.1714 10.4444 17.4796 10.1897 17.7432 9.92914C17.9522 9.7225 18.1593 9.51664 18.3487 9.29164C18.41 9.22211 18.4753 9.1596 18.5428 9.0971C18.98 8.6639 19.2303 8.03343 19.2413 7.42211C19.2397 6.68382 19.0241 6.035 18.5022 5.49164C18.0167 5.02718 17.3745 4.77718 16.7069 4.75843C15.8745 4.7846 15.2136 5.16586 14.6448 5.75609C14.5803 5.82562 14.5186 5.89671 14.4569 5.96898C14.2893 6.16078 14.1096 6.33968 13.9288 6.51898C13.8932 6.55414 13.8581 6.58929 13.8214 6.62562C13.6901 6.75648 13.5589 6.88695 13.4276 7.01742C13.2983 7.14554 13.169 7.27406 13.0401 7.40257C13.0065 7.43578 12.9729 7.46937 12.9382 7.50375C12.7686 7.6721 12.6061 7.84398 12.4503 8.02523C12.3698 8.11742 12.2843 8.20296 12.1968 8.28851C12.1624 8.3225 12.1276 8.35648 12.0921 8.39164C12.0214 8.46117 11.9503 8.53031 11.8796 8.59984C11.2104 9.26039 10.6616 9.96742 10.6276 10.9373C10.653 11.6448 10.9303 12.3327 11.453 12.8202C11.5616 12.9045 11.6725 12.9842 11.785 13.0635C11.9014 13.1459 11.9932 13.2127 12.078 13.328C12.0729 13.5545 11.9604 13.6991 11.8315 13.8748C11.8104 13.9041 11.7893 13.933 11.7678 13.9631C11.56 14.2467 11.3393 14.5147 11.1014 14.7733C11.0772 14.7998 11.0534 14.8264 11.0284 14.8537C10.9518 14.9369 10.8745 15.019 10.7964 15.1002C10.7846 15.1135 10.7846 15.1135 10.7241 15.1787C10.6077 15.2975 10.544 15.3537 10.3772 15.3866C10.2132 15.3534 10.1108 15.2846 9.98582 15.1784C9.9741 15.169 9.9741 15.169 9.91511 15.1205C8.76824 14.1592 8.08972 12.9014 7.89832 11.4139C7.88933 11.2213 7.88894 11.0284 7.88855 10.8354C7.88855 10.808 7.88855 10.7811 7.88855 10.7534C7.8905 9.48734 8.29832 8.2307 9.14832 7.27328C9.17175 7.24671 9.19519 7.21976 9.21902 7.19242C9.478 6.89906 9.75417 6.62523 10.0323 6.35023C10.1249 6.25882 10.2175 6.16703 10.3096 6.07562C10.3303 6.05531 10.3507 6.035 10.3718 6.01429C10.4803 5.90648 10.5835 5.79593 10.6831 5.67992C10.8479 5.48968 11.0257 5.3139 11.2042 5.13695C11.2393 5.10179 11.2749 5.06664 11.3112 5.03031C11.4425 4.89945 11.5741 4.76898 11.7053 4.63851C11.8346 4.51039 11.9635 4.38187 12.0928 4.25336C12.1264 4.22015 12.16 4.18656 12.1948 4.15218C12.3655 3.98226 12.53 3.81 12.6866 3.6264C14.4843 1.55336 17.9928 1.49515 20.0346 3.19398Z" fill="black"/>
</svg>
