<svg width="24" height="24" viewBox="0 0 24 24" fill="black" xmlns="http://www.w3.org/2000/svg">
<path d="M11 13.5V18.5L15 16L11 13.5Z" />
<path fill-rule="evenodd" clip-rule="evenodd" d="M20.7035 2.27393L21.5014 5.87306L13.0351 7.74998H21.75V19C21.75 20.2426 20.7426 21.25 19.5 21.25H4.5C3.25736 21.25 2.25 20.2426 2.25 19L2.25 7.74998C2.24997 6.91546 2.59292 6.38642 3.40375 6.11818L20.7035 2.27393ZM18.2503 3.84205L20.3086 5.11321L17.8212 5.66466L15.8097 4.38312L18.2503 3.84205ZM13.8571 4.816L15.8686 6.09754L13.4279 6.63864L11.4164 5.3571L13.8571 4.816ZM9.46378 5.78998L11.4753 7.07152L8.54638 7.72084L6.53489 6.4393L9.46378 5.78998ZM3.75 12H20.25V19C20.25 19.4142 19.9142 19.75 19.5 19.75H4.5C4.08579 19.75 3.75 19.4142 3.75 19L3.75 12ZM11.7498 10.4997H14.7498L16.4996 8.74978H13.4996L11.7498 10.4997ZM6.7498 10.4999H9.7498L11.4999 8.74978H8.49994L6.7498 10.4999ZM16.2498 10.5H19.2498L21 8.74978H18L16.2498 10.5Z" />
</svg>
