<svg width="24" height="24" viewBox="0 0 24 24" fill="none" xmlns="http://www.w3.org/2000/svg">
<path d="M15.0486 11.2231C14.7197 11.2231 14.4657 11.3178 14.2855 11.5037C14.104 11.6892 13.9909 11.9417 13.9446 12.2611H16.1487C16.1247 11.921 16.0112 11.6637 15.8069 11.4879C15.604 11.3116 15.3507 11.2231 15.0486 11.2231Z" fill="black"/>
<path d="M10.2429 11.0971C10.4277 10.9845 10.5199 10.7843 10.5199 10.4967C10.5199 10.1791 10.3978 9.9681 10.1531 9.86668C9.94276 9.79621 9.6734 9.75977 9.34695 9.75977H8.07587V11.2664H9.52104C9.81785 11.2664 10.058 11.21 10.2429 11.0971Z" fill="black"/>
<path d="M10.2246 12.5132C10.0628 12.4383 9.83451 12.4001 9.54165 12.3975H8.07562V14.2176H9.51882C9.81541 14.2176 10.0448 14.1787 10.2106 14.0977C10.5093 13.9489 10.6591 13.6655 10.6591 13.2449C10.6591 12.8901 10.514 12.6449 10.2246 12.5132Z" fill="black"/>
<path d="M11.9888 2.10986C6.53276 2.10986 2.10986 6.53276 2.10986 11.9888C2.10986 17.4448 6.53276 21.8677 11.9888 21.8677C17.4448 21.8677 21.8677 17.4448 21.8677 11.9888C21.8677 6.53276 17.4448 2.10986 11.9888 2.10986ZM13.6627 8.85716H16.4132V9.54034H13.6627V8.85716ZM11.7945 14.4319C11.6652 14.6444 11.5045 14.8238 11.3113 14.9685C11.094 15.1355 10.8364 15.2501 10.5405 15.3114C10.2437 15.3726 9.92232 15.4036 9.57612 15.4036H6.50049V8.57396H9.79894C10.6303 8.58757 11.2198 8.8284 11.5679 9.30149C11.7767 9.59171 11.8803 9.93966 11.8803 10.3445C11.8803 10.762 11.7756 11.0962 11.5646 11.3499C11.4474 11.4922 11.274 11.6217 11.0446 11.7385C11.3921 11.8656 11.6557 12.066 11.832 12.3418C12.0094 12.6166 12.0981 12.9503 12.0981 13.3422C12.0979 13.7474 11.998 14.111 11.7945 14.4319ZM17.4757 13.1049H13.9138C13.9334 13.5966 14.1033 13.9404 14.4251 14.1371C14.6192 14.2605 14.8545 14.3208 15.1303 14.3208C15.4209 14.3208 15.6578 14.2473 15.84 14.0963C15.9395 14.0161 16.027 13.9033 16.1028 13.7606H17.4083C17.3741 14.051 17.2169 14.3454 16.9344 14.6449C16.4966 15.1206 15.8828 15.359 15.0945 15.359C14.4431 15.359 13.8693 15.1579 13.3712 14.7571C12.8746 14.3549 12.6252 13.7024 12.6252 12.7973C12.6252 11.9486 12.8491 11.299 13.2983 10.8468C13.7492 10.3937 14.3312 10.1682 15.0484 10.1682C15.4736 10.1682 15.8569 10.2442 16.1987 10.3969C16.5397 10.55 16.8213 10.7906 17.0433 11.1214C17.2441 11.4127 17.3732 11.7497 17.4334 12.1332C17.4667 12.3569 17.4819 12.6812 17.4757 13.1049Z" fill="black"/>
</svg>
