<svg width="24" height="24" viewBox="0 0 24 24" fill="none" xmlns="http://www.w3.org/2000/svg">
<path d="M12.1613 12.8738C12.0798 12.9425 11.9795 12.9768 11.8789 12.9768C11.7784 12.9768 11.6781 12.9425 11.5964 12.8738L7.41345 9.35911V14.9025H16.3444V9.35889L12.1613 12.8738Z" fill="black"/>
<path d="M15.578 8.85596H8.17981L11.8789 11.9645L15.578 8.85596Z" fill="black"/>
<path d="M11.8789 2C6.4229 2 2 6.4229 2 11.8789C2 17.3349 6.4229 21.7578 11.8789 21.7578C17.3349 21.7578 21.7578 17.3349 21.7578 11.8789C21.7578 6.4229 17.3349 2 11.8789 2ZM17.2225 15.3411C17.2225 15.5835 17.0258 15.7802 16.7835 15.7802H6.97436C6.732 15.7802 6.5353 15.5835 6.5353 15.3411V8.41646C6.5353 8.409 6.53705 8.40219 6.53749 8.39495C6.53815 8.37936 6.53969 8.36399 6.5421 8.3484C6.5443 8.33479 6.54693 8.3214 6.55022 8.30823C6.55374 8.29418 6.55813 8.28057 6.56318 8.26674C6.56823 8.25313 6.57371 8.23974 6.58008 8.22678C6.58601 8.21449 6.59259 8.20242 6.59962 8.19056C6.60774 8.17717 6.6163 8.16444 6.62574 8.15214C6.63013 8.14622 6.63321 8.13985 6.63804 8.13414C6.64199 8.12931 6.64704 8.12602 6.65121 8.12141C6.66153 8.10999 6.6725 8.09968 6.68414 8.08936C6.69468 8.08014 6.70521 8.07092 6.71619 8.06279C6.72761 8.05445 6.73968 8.04721 6.75175 8.03996C6.76405 8.03272 6.77634 8.02569 6.78929 8.01955C6.80203 8.01362 6.8152 8.00879 6.82859 8.00418C6.8422 7.99935 6.85559 7.99496 6.86942 7.99145C6.88281 7.98815 6.89643 7.98596 6.91026 7.98398C6.9254 7.98179 6.94033 7.98003 6.95548 7.97937C6.96185 7.97915 6.96755 7.97762 6.97392 7.97762H16.783C16.7898 7.97762 16.796 7.97937 16.8026 7.97959C16.817 7.98025 16.8311 7.98179 16.8454 7.98398C16.8601 7.98618 16.8746 7.98837 16.8886 7.99189C16.9018 7.99518 16.9145 7.99935 16.9272 8.00396C16.9413 8.00879 16.9549 8.01384 16.9683 8.01999C16.9808 8.02591 16.9929 8.03272 17.0047 8.03974C17.0173 8.04699 17.0293 8.05445 17.041 8.06301C17.0522 8.07114 17.0625 8.08014 17.073 8.08936C17.0844 8.09946 17.0954 8.10999 17.1057 8.12119C17.1099 8.1258 17.1149 8.12909 17.1189 8.13392C17.1237 8.13963 17.1268 8.14622 17.1312 8.15214C17.1406 8.16444 17.1492 8.17717 17.1573 8.19034C17.1646 8.20242 17.1711 8.21449 17.1771 8.22678C17.1832 8.23974 17.1887 8.25269 17.1938 8.2663C17.1988 8.28013 17.2032 8.29396 17.2067 8.30823C17.21 8.3214 17.2126 8.33457 17.2148 8.34797C17.2172 8.36355 17.2188 8.37914 17.2194 8.39473C17.2199 8.40197 17.2216 8.409 17.2216 8.41624V15.3411H17.2225Z" fill="black"/>
</svg>
