<svg width="24" height="24" viewBox="0 0 24 24" fill="none" xmlns="http://www.w3.org/2000/svg">
<path d="M11.8789 2C6.4229 2 2 6.44551 2 11.9292C2 16.9358 5.68747 21.0749 10.4812 21.7576V14.9539H8.14534V12.2205H10.4812V10.2048C10.4812 7.86544 11.8952 6.59172 13.9605 6.59172C14.9497 6.59172 15.8002 6.66614 16.0478 6.69951V9.14421L14.6154 9.14486C13.4922 9.14486 13.2747 9.68425 13.2747 10.4754V12.2205H15.9534L15.6046 14.9539H13.2749V21.7578C18.0695 21.0759 21.7578 16.9365 21.7578 11.9292C21.7578 6.44551 17.3349 2 11.8789 2Z" fill="black"/>
</svg>
