<svg width="24" height="24" viewBox="0 0 24 24" fill="none" xmlns="http://www.w3.org/2000/svg">
<path d="M21.8084 7.91553C21.7605 6.86411 21.5932 6.14595 21.3491 5.51756C21.1013 4.85843 20.7121 4.2614 20.2098 3.76766C19.7167 3.26532 19.119 2.87611 18.4599 2.6277C17.8315 2.3836 17.1133 2.21698 16.0619 2.16902C15.0086 2.12106 14.6717 2.10938 11.9891 2.10938C9.3064 2.10938 8.96946 2.12106 7.9162 2.16902C6.86478 2.21698 6.14662 2.38422 5.51823 2.62832C4.85848 2.87672 4.26145 3.26532 3.76833 3.76828C3.26599 4.2614 2.87678 4.85843 2.62838 5.51818C2.38428 6.14657 2.21765 6.86473 2.16969 7.91614C2.12111 8.97002 2.11005 9.30635 2.11005 11.9896C2.11005 14.6729 2.12173 15.0092 2.16969 16.0631C2.21765 17.1145 2.38489 17.8327 2.62899 18.461C2.87678 19.1202 3.26599 19.7172 3.76833 20.2109C4.26145 20.7133 4.8591 21.1025 5.51823 21.3503C6.14662 21.5944 6.86478 21.7616 7.9162 21.8096C8.96946 21.8576 9.3064 21.8692 11.9891 21.8692C14.6717 21.8692 15.0086 21.8582 16.0619 21.8096C17.1133 21.7616 17.8315 21.5944 18.4599 21.3503C19.7867 20.8375 20.8357 19.7879 21.3491 18.461C21.5932 17.8327 21.7605 17.1145 21.8084 16.0631C21.8564 15.0092 21.8681 14.6729 21.8681 11.9896C21.8681 9.30635 21.8564 8.9694 21.8084 7.91553ZM20.0302 15.9807C19.9866 16.9442 19.8255 17.4668 19.6902 17.8148C19.3576 18.6762 18.6769 19.3575 17.8155 19.6895C17.4675 19.8248 16.9442 19.9859 15.9814 20.0296C14.9398 20.0769 14.6274 20.0874 11.9897 20.0874C9.35129 20.0874 9.03894 20.0775 7.99798 20.0296C7.0351 19.9859 6.51185 19.8248 6.16384 19.6895C5.73466 19.5309 5.34669 19.2788 5.02819 18.9505C4.69985 18.632 4.44776 18.244 4.28912 17.8148C4.15385 17.4668 3.99276 16.9436 3.9491 15.9807C3.90176 14.9391 3.8913 14.6268 3.8913 11.989C3.8913 9.35123 3.90114 9.03888 3.9491 7.9973C3.99153 7.0332 4.15201 6.51057 4.28728 6.16255C4.44591 5.73338 4.69862 5.34478 5.02634 5.02629C5.34546 4.69795 5.73343 4.44585 6.16261 4.28722C6.51062 4.15195 7.03387 3.99086 7.99675 3.9472C9.03832 3.89986 9.35067 3.89002 11.9884 3.89002C14.6262 3.89002 14.9386 3.89986 15.9801 3.94782C16.9436 3.99147 17.4663 4.15257 17.8143 4.28784C18.2434 4.44647 18.6314 4.69856 18.9499 5.0269C19.2783 5.3454 19.5303 5.73399 19.689 6.16317C19.8243 6.51118 19.9853 7.03443 20.029 7.9973C20.0763 9.03888 20.0868 9.35123 20.0868 11.989C20.0868 14.6268 20.0776 14.9391 20.0302 15.9807Z" fill="black"/>
<path d="M11.9884 6.91602C9.18646 6.91602 6.91577 9.18732 6.91577 11.9886C6.91577 14.79 9.18708 17.0619 11.9884 17.0619C14.7903 17.0619 17.0616 14.7906 17.0616 11.9886C17.0616 9.1867 14.7903 6.91602 11.9884 6.91602ZM11.9884 15.2818C10.1702 15.2818 8.6958 13.8074 8.6958 11.9886C8.6958 10.1699 10.1702 8.69543 11.989 8.69543C13.8078 8.69543 15.2822 10.1699 15.2822 11.9886C15.2822 13.8074 13.8072 15.2818 11.9884 15.2818Z" fill="black"/>
<path d="M18.4476 6.71524C18.4476 7.37007 17.9169 7.9007 17.2621 7.9007C16.6073 7.9007 16.0767 7.37007 16.0767 6.71524C16.0767 6.06041 16.6073 5.52979 17.2621 5.52979C17.9169 5.52979 18.4476 6.06041 18.4476 6.71524Z" fill="black"/>
</svg>
