<svg width="24" height="24" viewBox="0 0 24 24" fill="none" xmlns="http://www.w3.org/2000/svg">
<path d="M19.4454 21.8677H4.53217C3.19654 21.8677 2.10986 20.781 2.10986 19.4454V4.53217C2.10986 3.19654 3.19654 2.10986 4.53217 2.10986H19.4454C20.781 2.10986 21.8677 3.19654 21.8677 4.53217V19.4454C21.8677 20.781 20.781 21.8677 19.4454 21.8677ZM4.53217 3.42705C3.92275 3.42705 3.42705 3.92275 3.42705 4.53217V19.4454C3.42705 20.0546 3.92275 20.5505 4.53217 20.5505H19.4454C20.0546 20.5505 20.5505 20.0546 20.5505 19.4454V4.53217C20.5505 3.92275 20.0546 3.42705 19.4454 3.42705H4.53217Z" fill="black"/>
<path d="M8.95702 10.1489H6.68048V17.4681H8.95702V10.1489Z" fill="black"/>
<path d="M7.81877 9.14858C7.08993 9.14858 6.50049 8.5576 6.50049 7.82986C6.50049 7.10145 7.08993 6.51025 7.81877 6.51025C8.54608 6.51025 9.13706 7.10123 9.13706 7.82986C9.13706 8.5576 8.54586 9.14858 7.81877 9.14858Z" fill="black"/>
<path d="M17.4771 17.4676H15.2034V13.9083C15.2034 13.0594 15.1887 11.9677 14.0212 11.9677C12.8375 11.9677 12.6568 12.893 12.6568 13.8473V17.4676H10.3831V10.1486H12.565V11.1495H12.596C12.8996 10.5738 13.6418 9.96729 14.7483 9.96729C17.0518 9.96729 17.4771 11.4827 17.4771 13.4534V17.4676Z" fill="black"/>
</svg>
